<?xml version="1.0" encoding="UTF-8"?>
<svg version="1.1" xmlns="http://www.w3.org/2000/svg" width="100" height="100">
<path d="M0 0 C9.84997386 -0.62101411 9.84997386 -0.62101411 14.125 1.6875 C16.16670984 4.2056088 16.73309994 5.79719931 17 9 C17.78375 8.814375 18.5675 8.62875 19.375 8.4375 C22 8 22 8 24 9 C24 9.66 24 10.32 24 11 C25.32 11 26.64 11 28 11 C28 10.01 28 9.02 28 8 C28.66 8 29.32 8 30 8 C30 7.34 30 6.68 30 6 C30.99 6 31.98 6 33 6 C33 5.01 33 4.02 33 3 C33.99 3 34.98 3 36 3 C36.33 2.01 36.66 1.02 37 0 C37.99 0 38.98 0 40 0 C40.495 0.99 40.495 0.99 41 2 C42.32 2 43.64 2 45 2 C44.67 4.64 44.34 7.28 44 10 C42.68 10 41.36 10 40 10 C39.67 11.32 39.34 12.64 39 14 C38.34 14 37.68 14 37 14 C36.67 14.99 36.34 15.98 36 17 C35.34 17.66 34.68 18.32 34 19 C34.53109375 19.29132812 35.0621875 19.58265625 35.609375 19.8828125 C40.92903414 22.96976799 44.7397206 25.81554292 46.59765625 31.984375 C47.31506409 35.68982131 47.19867548 37.65415749 45.3125 40.9375 C43.07200359 42.93578058 41.93793754 43.68522098 39 44 C39.495 44.721875 39.99 45.44375 40.5 46.1875 C42.15934905 49.29877948 42.49338874 50.54627882 42 54 C40.67707904 58.26274532 39.82424865 60.42660964 36.125 63 C32.65383364 64.11077324 31.36086696 64.34434679 28 63 C25.85673531 61.44727855 23.96724434 59.78424487 22 58 C21.34 58.99 20.68 59.98 20 61 C19.34 61 18.68 61 18 61 C17.34 62.32 16.68 63.64 16 65 C14.06372231 65.10807131 12.12572244 65.1856225 10.1875 65.25 C9.10855469 65.29640625 8.02960937 65.3428125 6.91796875 65.390625 C4 65 4 65 2.11328125 63.109375 C1 61 1 61 1 59 C0.236875 58.979375 -0.52625 58.95875 -1.3125 58.9375 C-4 58 -4 58 -5.875 54.8125 C-7.21702071 50.26454092 -7.12052005 47.24104009 -5 43 C-5.99 43.495 -5.99 43.495 -7 44 C-14.32364597 44.46499339 -14.32364597 44.46499339 -17 42.625 C-18 41 -18 41 -18 39 C-19.32 38.67 -20.64 38.34 -22 38 C-23.19675953 32.41512221 -23.10936818 28.31958802 -20.625 23.125 C-20.08875 22.42375 -19.5525 21.7225 -19 21 C-18.01 21 -17.02 21 -16 21 C-16 20.34 -16 19.68 -16 19 C-13.36 18.34 -10.72 17.68 -8 17 C-8.226875 16.319375 -8.45375 15.63875 -8.6875 14.9375 C-9.11990624 10.87288134 -7.96837815 8.52950565 -6 5 C-3.9375 4.3125 -3.9375 4.3125 -2 4 C-0.85979274 2.01661234 -0.85979274 2.01661234 0 0 Z M36 3 C37 5 37 5 37 5 Z M32 8 C33 10 33 10 33 10 Z M34 12 C34.33 12.66 34.66 13.32 35 14 C35.66 13.34 36.32 12.68 37 12 C36.01 12 35.02 12 34 12 Z " fill="#98171E" transform="translate(38,17)"/>
<path d="M0 0 C3.63 0 7.26 0 11 0 C11.495 0.99 11.495 0.99 12 2 C11.50113281 2.37125 11.00226562 2.7425 10.48828125 3.125 C8.34208883 5.82886446 8.8359522 7.62514114 9.1875 11 C9.28417969 12.051875 9.38085938 13.10375 9.48046875 14.1875 C10.12099465 17.65500864 11.31458147 19.42167811 14 21.6875 C15.8799814 23.18288548 15.8799814 23.18288548 18 23 C17.46973314 27.17585151 16.20631446 29.37370735 13.5 32.5625 C11.13241516 35.36187798 9.59677132 37.34477566 9 41 C13.16121316 38.06267307 15.75675885 34.77647608 18.5703125 30.609375 C19.04210938 30.07828125 19.51390625 29.5471875 20 29 C20.99 29 21.98 29 23 29 C23.495 29.99 23.495 29.99 24 31 C26.52733235 31.65555119 26.52733235 31.65555119 29 32 C28.01 32.495 28.01 32.495 27 33 C26.67 34.32 26.34 35.64 26 37 C28.97 37.66 31.94 38.32 35 39 C34.34 39.66 33.68 40.32 33 41 C31.741875 40.79375 30.48375 40.5875 29.1875 40.375 C25.70032341 39.81806436 25.27453377 39.82095624 22.125 41.875 C21.42375 42.57625 20.7225 43.2775 20 44 C19.01 44.495 19.01 44.495 18 45 C16.33032028 44.3409159 14.66392045 43.67349161 13 43 C11.68 43 10.36 43 9 43 C8.67 43.66 8.34 44.32 8 45 C7.34 45 6.68 45 6 45 C5.87625 45.721875 5.7525 46.44375 5.625 47.1875 C5 50 5 50 4 52.4375 C2.89092718 55.27949909 2.42056764 57.98593192 2 61 C1.67 60.34 1.34 59.68 1 59 C0.21625 58.938125 -0.5675 58.87625 -1.375 58.8125 C-4 58 -4 58 -5.875 54.8125 C-7.21702071 50.26454092 -7.12052005 47.24104009 -5 43 C-5.99 43.495 -5.99 43.495 -7 44 C-14.32364597 44.46499339 -14.32364597 44.46499339 -17 42.625 C-18 41 -18 41 -18 39 C-19.32 38.67 -20.64 38.34 -22 38 C-23.19675953 32.41512221 -23.10936818 28.31958802 -20.625 23.125 C-20.08875 22.42375 -19.5525 21.7225 -19 21 C-18.01 21 -17.02 21 -16 21 C-16 20.34 -16 19.68 -16 19 C-13.36 18.34 -10.72 17.68 -8 17 C-8.226875 16.319375 -8.45375 15.63875 -8.6875 14.9375 C-9.11990624 10.87288134 -7.96837815 8.52950565 -6 5 C-3.9375 4.3125 -3.9375 4.3125 -2 4 C-1.34 2.68 -0.68 1.36 0 0 Z " fill="#9A131B" transform="translate(38,17)"/>
<path d="M0 0 C0.99 0 1.98 0 3 0 C3.495 0.99 3.495 0.99 4 2 C5.32 2 6.64 2 8 2 C7.67 4.64 7.34 7.28 7 10 C5.68 10 4.36 10 3 10 C2.67 11.32 2.34 12.64 2 14 C1.34 14 0.68 14 0 14 C-0.33 14.99 -0.66 15.98 -1 17 C-3.33909477 19.15916441 -5.21627929 20.07226578 -8.26171875 21.08984375 C-13.05306404 23.1099448 -15.34119514 26.87632211 -18.1875 31.0625 C-19.19425516 32.51698617 -20.20833208 33.96643792 -21.23046875 35.41015625 C-21.66770264 36.05090088 -22.10493652 36.69164551 -22.55541992 37.35180664 C-24.19614308 39.22378941 -25.72559121 40.03437168 -28 41 C-27.46973314 36.82414849 -26.20631446 34.62629265 -23.5 31.4375 C-21.13241516 28.63812202 -19.59677132 26.65522434 -19 23 C-19.99 23.33 -20.98 23.66 -22 24 C-22.33 23.34 -22.66 22.68 -23 22 C-24.32 22.33 -25.64 22.66 -27 23 C-27.39121548 20.43904329 -27.76333355 17.8776528 -28.125 15.3125 C-28.23714844 14.59126953 -28.34929688 13.87003906 -28.46484375 13.12695312 C-29.05633932 8.80903549 -29.06662636 5.88066506 -27 2 C-23.76509224 2.55774272 -22.02144994 3.37211508 -20 6 C-20 6.99 -20 7.98 -20 9 C-19.21625 8.814375 -18.4325 8.62875 -17.625 8.4375 C-15 8 -15 8 -13 9 C-13 9.66 -13 10.32 -13 11 C-11.68 11 -10.36 11 -9 11 C-9 10.01 -9 9.02 -9 8 C-8.34 8 -7.68 8 -7 8 C-7 7.34 -7 6.68 -7 6 C-6.01 6 -5.02 6 -4 6 C-4 5.01 -4 4.02 -4 3 C-3.01 3 -2.02 3 -1 3 C-0.67 2.01 -0.34 1.02 0 0 Z M-1 3 C0 5 0 5 0 5 Z M-5 8 C-4 10 -4 10 -4 10 Z M-3 12 C-2.67 12.66 -2.34 13.32 -2 14 C-1.34 13.34 -0.68 12.68 0 12 C-0.99 12 -1.98 12 -3 12 Z " fill="#AA151D" transform="translate(75,17)"/>
<path d="M0 0 C0.928125 0.474375 1.85625 0.94875 2.8125 1.4375 C5.91196237 3.04488875 5.91196237 3.04488875 9 4 C8.46973314 8.17585151 7.20631446 10.37370735 4.5 13.5625 C2.13241516 16.36187798 0.59677132 18.34477566 0 22 C4.16121316 19.06267307 6.75675885 15.77647608 9.5703125 11.609375 C10.04210937 11.07828125 10.51390625 10.5471875 11 10 C11.99 10 12.98 10 14 10 C14.33 10.66 14.66 11.32 15 12 C17.52733235 12.65555119 17.52733235 12.65555119 20 13 C19.34 13.33 18.68 13.66 18 14 C17.67 15.32 17.34 16.64 17 18 C21.455 18.99 21.455 18.99 26 20 C25.34 20.66 24.68 21.32 24 22 C22.1128125 21.690625 22.1128125 21.690625 20.1875 21.375 C16.70032341 20.81806436 16.27453377 20.82095624 13.125 22.875 C12.42375 23.57625 11.7225 24.2775 11 25 C10.34 25.33 9.68 25.66 9 26 C7.33032028 25.3409159 5.66392045 24.67349161 4 24 C2.68 24 1.36 24 0 24 C-0.33 24.66 -0.66 25.32 -1 26 C-1.66 26 -2.32 26 -3 26 C-3.12375 26.721875 -3.2475 27.44375 -3.375 28.1875 C-4 31 -4 31 -5 33.4375 C-6.10907282 36.27949909 -6.57943236 38.98593192 -7 42 C-7.33 41.34 -7.66 40.68 -8 40 C-8.78375 39.938125 -9.5675 39.87625 -10.375 39.8125 C-13 39 -13 39 -14.875 35.8125 C-16.29293212 31.00728558 -15.96089635 28.14788596 -13.9375 23.625 C-13.628125 23.08875 -13.31875 22.5525 -13 22 C-11.68 22 -10.36 22 -9 22 C-9 21.34 -9 20.68 -9 20 C-7.02 19.67 -5.04 19.34 -3 19 C-3.474375 18.34 -3.94875 17.68 -4.4375 17 C-6.41317854 13.2066972 -6.64027463 10.24475932 -7 6 C-6.01 6 -5.02 6 -4 6 C-3.67 5.01 -3.34 4.02 -3 3 C-2.01 3 -1.02 3 0 3 C0 2.01 0 1.02 0 0 Z " fill="#91121A" transform="translate(47,36)"/>
<path d="M0 0 C2.31 0.33 4.62 0.66 7 1 C7 2.65 7 4.3 7 6 C8.32 6.33 9.64 6.66 11 7 C11.33 8.65 11.66 10.3 12 12 C10.02 12.99 10.02 12.99 8 14 C7.87625 13.360625 7.7525 12.72125 7.625 12.0625 C7.41875 11.381875 7.2125 10.70125 7 10 C6.34 9.67 5.68 9.34 5 9 C4.67 11.31 4.34 13.62 4 16 C3.34 15.01 2.68 14.02 2 13 C1.51789062 13.433125 1.03578125 13.86625 0.5390625 14.3125 C-0.40839844 15.1478125 -0.40839844 15.1478125 -1.375 16 C-2.00148438 16.556875 -2.62796875 17.11375 -3.2734375 17.6875 C-5 19 -5 19 -7 19 C-6.6083965 13.04492601 -5.62875405 8.37180176 -3 3 C-2.34 3 -1.68 3 -1 3 C-0.67 2.01 -0.34 1.02 0 0 Z " fill="#AB1720" transform="translate(47,59)"/>
<path d="M0 0 C0.928125 0.474375 1.85625 0.94875 2.8125 1.4375 C5.91196237 3.04488875 5.91196237 3.04488875 9 4 C8.47515308 8.55700425 6.68492697 11.192874 3.9375 14.8125 C3.20402344 15.78832031 2.47054687 16.76414062 1.71484375 17.76953125 C1.14894531 18.50558594 0.58304688 19.24164063 0 20 C-3 19 -3 19 -4.625 16.9375 C-6.37463754 13.19963799 -6.65222092 10.10379314 -7 6 C-6.01 6 -5.02 6 -4 6 C-3.67 5.01 -3.34 4.02 -3 3 C-2.01 3 -1.02 3 0 3 C0 2.01 0 1.02 0 0 Z " fill="#6F0507" transform="translate(47,36)"/>
<path d="M0 0 C0.99 0 1.98 0 3 0 C3.33 0.66 3.66 1.32 4 2 C5.32 2 6.64 2 8 2 C7.67 4.64 7.34 7.28 7 10 C5.68 10 4.36 10 3 10 C2.67 11.32 2.34 12.64 2 14 C1.34 14 0.68 14 0 14 C-0.33 14.99 -0.66 15.98 -1 17 C-2.84765625 17.73046875 -2.84765625 17.73046875 -5.0625 18.1875 C-5.79597656 18.34605469 -6.52945313 18.50460938 -7.28515625 18.66796875 C-7.85105469 18.77753906 -8.41695313 18.88710938 -9 19 C-8.814375 18.29875 -8.62875 17.5975 -8.4375 16.875 C-7.94843024 13.66111302 -8.33768442 11.16439664 -9 8 C-8.34 8 -7.68 8 -7 8 C-7 7.34 -7 6.68 -7 6 C-6.01 6 -5.02 6 -4 6 C-4 5.01 -4 4.02 -4 3 C-3.01 3 -2.02 3 -1 3 C-0.67 2.01 -0.34 1.02 0 0 Z M-1 3 C0 5 0 5 0 5 Z M-5 8 C-4 10 -4 10 -4 10 Z M-3 12 C-2.67 12.66 -2.34 13.32 -2 14 C-1.34 13.34 -0.68 12.68 0 12 C-0.99 12 -1.98 12 -3 12 Z " fill="#845C35" transform="translate(75,17)"/>
<path d="M0 0 C0.99 0 1.98 0 3 0 C3.33 0.66 3.66 1.32 4 2 C6.52733235 2.65555119 6.52733235 2.65555119 9 3 C8.01 3.495 8.01 3.495 7 4 C6.67 5.32 6.34 6.64 6 8 C8.97 8.66 11.94 9.32 15 10 C14.34 10.66 13.68 11.32 13 12 C11.741875 11.79375 10.48375 11.5875 9.1875 11.375 C5.70032341 10.81806436 5.27453377 10.82095624 2.125 12.875 C1.42375 13.57625 0.7225 14.2775 0 15 C-2 16 -2 16 -3.9453125 15.44140625 C-4.66460937 15.15136719 -5.38390625 14.86132812 -6.125 14.5625 C-6.84945312 14.27503906 -7.57390625 13.98757812 -8.3203125 13.69140625 C-8.87460937 13.46324219 -9.42890625 13.23507813 -10 13 C-8.53587448 11.03319139 -7.06712273 9.07024141 -5.58984375 7.11328125 C-4.3159014 5.41990825 -3.06099476 3.71222138 -1.8125 2 C-1.214375 1.34 -0.61625 0.68 0 0 Z " fill="#631214" transform="translate(58,46)"/>
<path d="M0 0 C3.45925163 1.2491742 6.14693203 2.67527795 9 5 C8.67 6.32 8.34 7.64 8 9 C7.34 8.67 6.68 8.34 6 8 C5.8453125 9.1446875 5.8453125 9.1446875 5.6875 10.3125 C4.94177197 13.22761867 4.25289461 14.10756853 2 16 C1.34 16.66 0.68 17.32 0 18 C-0.33 16.02 -0.66 14.04 -1 12 C-1.66 12 -2.32 12 -3 12 C-3.33 12.66 -3.66 13.32 -4 14 C-6.21538462 8.70769231 -6.21538462 8.70769231 -5.125 5.125 C-4.75375 4.42375 -4.3825 3.7225 -4 3 C-2.68 3.33 -1.36 3.66 0 4 C0 2.68 0 1.36 0 0 Z " fill="#B42027" transform="translate(69,57)"/>
<path d="M0 0 C4.27547053 -0.34203764 6.59660493 -0.21269922 10.4375 1.8125 C11.283125 2.534375 12.12875 3.25625 13 4 C13 7.51716303 12.17554415 8.37121748 10 11 C11.32 11.99 12.64 12.98 14 14 C13 15 13 15 9.9375 15.0625 C8.968125 15.041875 7.99875 15.02125 7 15 C6.34 13.68 5.68 12.36 5 11 C3.02 11 1.04 11 -1 11 C2 9 2 9 4 8 C4 7.34 4 6.68 4 6 C1.525 5.01 1.525 5.01 -1 4 C-0.67 2.68 -0.34 1.36 0 0 Z " fill="#B41C25" transform="translate(24,35)"/>
<path d="M0 0 C2.5625 3 2.5625 3 4 6 C1.82779645 8.73277221 0.14172035 10.72888915 -3.3359375 11.5546875 C-5.56274452 11.78650022 -7.76217118 11.94637012 -10 12 C-9.01 11.34 -8.02 10.68 -7 10 C-7.66 9.67 -8.32 9.34 -9 9 C-9.39171753 7.34608154 -9.72057545 5.67654729 -10 4 C-10.33 3.01 -10.66 2.02 -11 1 C-7.52984096 -0.73507952 -3.77380913 -0.74403697 0 0 Z " fill="#AF1B24" transform="translate(79,40)"/>
<path d="M0 0 C0.33 0.99 0.66 1.98 1 3 C1.33 3 1.66 3 2 3 C2.99 3 3.98 3 5 3 C5 3.66 5 4.32 5 5 C4.13532104 5.29173096 4.13532104 5.29173096 3.25317383 5.58935547 C-3.3335342 8.11058995 -6.46041013 11.32871941 -10.3125 17.125 C-11.30114039 18.5702311 -12.29698803 20.01056446 -13.30078125 21.4453125 C-13.93753784 22.39688232 -13.93753784 22.39688232 -14.5871582 23.36767578 C-16.20917835 25.24167383 -17.73611213 26.03842864 -20 27 C-19.48215698 22.55451684 -17.93582361 20.25835118 -15.0625 16.875 C-14.26070312 15.92753906 -13.45890625 14.98007812 -12.6328125 14.00390625 C-8.48743647 9.27424132 -4.27443082 4.61352971 0 0 Z " fill="#D59544" transform="translate(67,31)"/>
<path d="M0 0 C3.25666272 0.56149357 4.95623323 1.37229986 7 4 C8.53848762 7.77628781 8.06674343 11.99539419 8 16 C7.67 16 7.34 16 7 16 C6.67 14.02 6.34 12.04 6 10 C5.67 10.99 5.34 11.98 5 13 C4.34 13 3.68 13 3 13 C2.34 14.32 1.68 15.64 1 17 C-1.63799428 14.36200572 -1.44709714 12.73742439 -1.75 9.0625 C-1.84796875 8.00160156 -1.9459375 6.94070312 -2.046875 5.84765625 C-2 3 -2 3 0 0 Z " fill="#B11D26" transform="translate(48,19)"/>
<path d="M0 0 C-0.49113281 0.55171875 -0.98226562 1.1034375 -1.48828125 1.671875 C-3.30109424 4.46370069 -3.3172951 5.96185741 -3.1875 9.25 C-3.16042969 10.14203125 -3.13335937 11.0340625 -3.10546875 11.953125 C-3.07066406 12.62859375 -3.03585938 13.3040625 -3 14 C-3.99 14.33 -4.98 14.66 -6 15 C-6.79397239 13.75146327 -7.58507217 12.50109957 -8.375 11.25 C-9.03628906 10.20585937 -9.03628906 10.20585937 -9.7109375 9.140625 C-10.91880906 7.13482617 -11.98387737 5.10821704 -13 3 C-9.331148 -1.44124189 -5.30968409 -1.36534734 0 0 Z " fill="#B31A23" transform="translate(50,18)"/>
<path d="M0 0 C2.5 1.5 2.5 1.5 4 3 C1.36 3.33 -1.28 3.66 -4 4 C-4.15811388 7.05270463 -4.15811388 7.05270463 -3 10 C-5.83967231 10 -8.23735711 9.59732819 -11 9 C-12 6 -12 6 -12 3 C-8.69810457 -0.71463236 -4.64510158 -0.74245476 0 0 Z " fill="#AC161E" transform="translate(74,37)"/>
<path d="M0 0 C0 1.32 0 2.64 0 4 C0.721875 4.061875 1.44375 4.12375 2.1875 4.1875 C5.88399074 5.2553751 7.53138868 7.10819816 10 10 C10 10.66 10 11.32 10 12 C6.32589215 13.17571451 2.83070817 13.07366746 -1 13 C-0.34 11.35 0.32 9.7 1 8 C-0.32 7.67 -1.64 7.34 -3 7 C-3 6.01 -3 5.02 -3 4 C-3.99 3.67 -4.98 3.34 -6 3 C-3.375 0 -3.375 0 0 0 Z " fill="#9F1018" transform="translate(64,42)"/>
<path d="M0 0 C0.99 0 1.98 0 3 0 C3.33 0.66 3.66 1.32 4 2 C5.32 2 6.64 2 8 2 C7.67 4.64 7.34 7.28 7 10 C5.68 10 4.36 10 3 10 C1.32774271 10.30404678 -0.34080104 10.63128912 -2 11 C-3.26190138 8.47619724 -2.83487878 7.61656307 -2.125 4.9375 C-1.94195312 4.22464844 -1.75890625 3.51179688 -1.5703125 2.77734375 C-1 1 -1 1 0 0 Z M-1 3 C0 5 0 5 0 5 Z " fill="#631D1F" transform="translate(75,17)"/>
<path d="M0 0 C0.4125 0.474375 0.825 0.94875 1.25 1.4375 C3.182185 3.16266518 4.48192275 3.56584875 7 4 C7.33 5.65 7.66 7.3 8 9 C6.02 9.99 6.02 9.99 4 11 C3.87625 10.360625 3.7525 9.72125 3.625 9.0625 C3.41875 8.381875 3.2125 7.70125 3 7 C2.34 6.67 1.68 6.34 1 6 C0.67 8.31 0.34 10.62 0 13 C-0.45375 12.505 -0.9075 12.01 -1.375 11.5 C-2.87635519 9.77390663 -2.87635519 9.77390663 -5 10 C-4.67 7.69 -4.34 5.38 -4 3 C-3.01 2.67 -2.02 2.34 -1 2 C-0.67 1.34 -0.34 0.68 0 0 Z " fill="#BC2129" transform="translate(51,62)"/>
<path d="M0 0 C5.71658336 -0.45732667 8.48649253 0.47726246 13 4 C11.68 4.99 10.36 5.98 9 7 C8.67 6.01 8.34 5.02 8 4 C7.071875 4.185625 6.14375 4.37125 5.1875 4.5625 C2 5 2 5 -1 4 C-0.67 2.68 -0.34 1.36 0 0 Z " fill="#A82028" transform="translate(24,35)"/>
<path d="M0 0 C0.33 0.66 0.66 1.32 1 2 C3.52733235 2.65555119 3.52733235 2.65555119 6 3 C5.01 3.495 5.01 3.495 4 4 C3.34786708 6.02463255 3.34786708 6.02463255 3 8 C1.35 8.33 -0.3 8.66 -2 9 C-2.28875 8.195625 -2.5775 7.39125 -2.875 6.5625 C-3.73262568 3.8673532 -3.73262568 3.8673532 -6 3 C-3.375 0 -3.375 0 0 0 Z " fill="#85080D" transform="translate(61,46)"/>
<path d="M0 0 C0.33 0.99 0.66 1.98 1 3 C1.33 3 1.66 3 2 3 C2.99 3 3.98 3 5 3 C5 3.66 5 4.32 5 5 C4.09507813 5.36351562 4.09507813 5.36351562 3.171875 5.734375 C-1.29906004 7.60928324 -4.84833717 9.16319307 -8 13 C-8.66 12.34 -9.32 11.68 -10 11 C-6.7 7.37 -3.4 3.74 0 0 Z " fill="#E19F4C" transform="translate(67,31)"/>
<path d="M0 0 C0 0.66 0 1.32 0 2 C1.65 2.33 3.3 2.66 5 3 C4.67 3.66 4.34 4.32 4 5 C3.34 4.67 2.68 4.34 2 4 C1.34 5.32 0.68 6.64 0 8 C-0.99 8 -1.98 8 -3 8 C-3 6.02 -3 4.04 -3 2 C-3.99 2.99 -4.98 3.98 -6 5 C-6.33 3.35 -6.66 1.7 -7 0 C-3.86650268 -1.04449911 -3.01031744 -0.93423645 0 0 Z " fill="#9C1B21" transform="translate(62,26)"/>
<path d="M0 0 C3.3 0 6.6 0 10 0 C10 0.99 10 1.98 10 3 C8.68 3 7.36 3 6 3 C5.67 4.98 5.34 6.96 5 9 C4.01 9 3.02 9 2 9 C1.34 8.01 0.68 7.02 0 6 C1.32 4.68 2.64 3.36 4 2 C2.68 1.34 1.36 0.68 0 0 Z " fill="#950F16" transform="translate(56,56)"/>
<path d="M0 0 C0.99 0 1.98 0 3 0 C3.33 2.64 3.66 5.28 4 8 C2.68 8.99 1.36 9.98 0 11 C0 10.01 0 9.02 0 8 C-0.99 7.67 -1.98 7.34 -3 7 C-2.01 4.69 -1.02 2.38 0 0 Z " fill="#9E1C23" transform="translate(81,47)"/>
<path d="M0 0 C0.33 0.99 0.66 1.98 1 3 C1.66 3 2.32 3 3 3 C3 3.66 3 4.32 3 5 C3.99 5.33 4.98 5.66 6 6 C4.02 8.97 4.02 8.97 2 12 C1.01 11.67 0.02 11.34 -1 11 C-1.6875 8.9375 -1.6875 8.9375 -2 7 C-1.67 7 -1.34 7 -1 7 C-0.67 4.69 -0.34 2.38 0 0 Z " fill="#570405" transform="translate(45,44)"/>
<path d="M0 0 C0.78375 0.495 1.5675 0.99 2.375 1.5 C4.78552327 3.16537965 4.78552327 3.16537965 7 3 C6.25 7.75 6.25 7.75 4 10 C4 9.34 4 8.68 4 8 C2.68 8 1.36 8 0 8 C-0.79953138 4.71303767 -1.09658936 3.28976808 0 0 Z " fill="#8F0A0F" transform="translate(49,37)"/>
<path d="M0 0 C2.31 0.33 4.62 0.66 7 1 C6.67 2.65 6.34 4.3 6 6 C5.01 6 4.02 6 3 6 C2.34 6.66 1.68 7.32 1 8 C1 6.68 1 5.36 1 4 C0.34 4 -0.32 4 -1 4 C-0.67 2.68 -0.34 1.36 0 0 Z " fill="#A4131A" transform="translate(47,59)"/>
<path d="M0 0 C2.23551759 3.35327639 2.17283528 3.90743657 1.625 7.6875 C1.51414062 8.49574219 1.40328125 9.30398437 1.2890625 10.13671875 C1.19367187 10.75160156 1.09828125 11.36648437 1 12 C-0.32 11.67 -1.64 11.34 -3 11 C-2.979375 10.071875 -2.95875 9.14375 -2.9375 8.1875 C-2.84230396 4.97713989 -2.84230396 4.97713989 -4 2 C-3.01 2 -2.02 2 -1 2 C-0.67 1.34 -0.34 0.68 0 0 Z " fill="#721013" transform="translate(44,40)"/>
<path d="M0 0 C0.33 0.66 0.66 1.32 1 2 C4.0318856 3.88186002 5.24517355 4 9 4 C8.67 5.32 8.34 6.64 8 8 C7.071875 7.835 6.14375 7.67 5.1875 7.5 C2.04378647 6.92251612 2.04378647 6.92251612 -1 7 C-0.67 4.69 -0.34 2.38 0 0 Z " fill="#74472B" transform="translate(73,20)"/>
<path d="M0 0 C2 1.625 2 1.625 4 4 C4.25 7.25 4.25 7.25 4 10 C3.34 9.34 2.68 8.68 2 8 C-0.10820797 8.3185177 -0.10820797 8.3185177 -2 9 C-1.41196203 5.97580475 -0.77321882 2.98241547 0 0 Z " fill="#A6121C" transform="translate(50,31)"/>
<path d="M0 0 C4.455 0.99 4.455 0.99 9 2 C9 2.66 9 3.32 9 4 C5.32589215 5.17571451 1.83070817 5.07366746 -2 5 C-1.34 3.35 -0.68 1.7 0 0 Z " fill="#970B12" transform="translate(65,50)"/>
<path d="M0 0 C0.66 0 1.32 0 2 0 C1.95875 1.11375 1.9175 2.2275 1.875 3.375 C1.58878141 7.04366025 1.58878141 7.04366025 4 9 C1.69 9.33 -0.62 9.66 -3 10 C-2.67 7.69 -2.34 5.38 -2 3 C-1.34 3 -0.68 3 0 3 C0 2.01 0 1.02 0 0 Z M-1 5 C0 7 0 7 0 7 Z " fill="#AB8449" transform="translate(71,20)"/>
<path d="M0 0 C1.99701936 0.26556108 3.97764818 0.64787339 5.953125 1.04296875 C1.203125 4.91796875 1.203125 4.91796875 -1.046875 6.04296875 C-3.671875 5.10546875 -3.671875 5.10546875 -6.046875 4.04296875 C-4.28243726 1.61686685 -3.12317824 0.0655629 0 0 Z " fill="#78070A" transform="translate(57.046875,55.95703125)"/>
<path d="M0 0 C1.65 0.33 3.3 0.66 5 1 C3.375 3.5 3.375 3.5 1 6 C-2.25 6.3125 -2.25 6.3125 -5 6 C-3.35 4.02 -1.7 2.04 0 0 Z " fill="#530303" transform="translate(53,53)"/>
<path d="M0 0 C6.75 0.75 6.75 0.75 9 3 C5.04 3.66 1.08 4.32 -3 5 C-2.67 4.01 -2.34 3.02 -2 2 C-1.34 2 -0.68 2 0 2 C0 1.34 0 0.68 0 0 Z " fill="#88171D" transform="translate(69,37)"/>
<path d="M0 0 C0.99 0.33 1.98 0.66 3 1 C2.04270084 2.12588014 1.08412105 3.2506715 0.125 4.375 C-0.40867187 5.00148438 -0.94234375 5.62796875 -1.4921875 6.2734375 C-2.61432007 7.55836651 -3.79371975 8.79371975 -5 10 C-5.33 9.01 -5.66 8.02 -6 7 C-4.78515625 5.17578125 -4.78515625 5.17578125 -3.0625 3.3125 C-2.49660156 2.68988281 -1.93070313 2.06726562 -1.34765625 1.42578125 C-0.90292969 0.95527344 -0.45820312 0.48476563 0 0 Z " fill="#B42B2B" transform="translate(64,30)"/>
<path d="M0 0 C0 1.32 0 2.64 0 4 C-1.32 3.67 -2.64 3.34 -4 3 C-4.33 4.65 -4.66 6.3 -5 8 C-5.66 7.67 -6.32 7.34 -7 7 C-7 5.35 -7 3.7 -7 2 C-2.25 0 -2.25 0 0 0 Z " fill="#A3151C" transform="translate(69,57)"/>
<path d="M0 0 C0.99 1.32 1.98 2.64 3 4 C1.71034824 5.37562854 0.37310707 6.70766393 -1 8 C-1.66 8 -2.32 8 -3 8 C-2.45276317 4.62537285 -1.9451 2.91765 0 0 Z " fill="#AA652B" transform="translate(50,50)"/>
<path d="M0 0 C0.33 0.99 0.66 1.98 1 3 C1.33 3 1.66 3 2 3 C2.99 3 3.98 3 5 3 C5 3.66 5 4.32 5 5 C2.69 5.66 0.38 6.32 -2 7 C-2.6875 5.1875 -2.6875 5.1875 -3 3 C-1.5625 1.25 -1.5625 1.25 0 0 Z " fill="#CB8C42" transform="translate(67,31)"/>
<path d="M0 0 C0.99 0.33 1.98 0.66 3 1 C2.67 1.99 2.34 2.98 2 4 C1.34 4 0.68 4 0 4 C-0.33 4.99 -0.66 5.98 -1 7 C-2.32 6.34 -3.64 5.68 -5 5 C-4.67 4.01 -4.34 3.02 -4 2 C-2.02 2.495 -2.02 2.495 0 3 C0 2.01 0 1.02 0 0 Z " fill="#613024" transform="translate(75,27)"/>
<path d="M0 0 C1.5 1 1.5 1 3 3 C3.27345479 5.71846235 3.13491285 8.25677199 3 11 C2.67 11 2.34 11 2 11 C1.67 9.02 1.34 7.04 1 5 C0.34 5.99 -0.32 6.98 -1 8 C-1.04241723 5.66705225 -1.04092937 3.33297433 -1 1 C-0.67 0.67 -0.34 0.34 0 0 Z " fill="#C94B52" transform="translate(53,24)"/>
<path d="M0 0 C0.33 0 0.66 0 1 0 C2.125 6.75 2.125 6.75 1 9 C0.01 8.67 -0.98 8.34 -2 8 C-2.33 6.35 -2.66 4.7 -3 3 C-2.01 3 -1.02 3 0 3 C0 2.01 0 1.02 0 0 Z " fill="#80050A" transform="translate(47,36)"/>
<path d="M0 0 C1.65 0 3.3 0 5 0 C1.81404865 2.63978826 -1.30970546 5.10498388 -5 7 C-5.66 6.67 -6.32 6.34 -7 6 C-6.34 5.34 -5.68 4.68 -5 4 C-4.01 4 -3.02 4 -2 4 C-1.34 2.68 -0.68 1.36 0 0 Z " fill="#5D171B" transform="translate(38,17)"/>
<path d="M0 0 C0 0.66 0 1.32 0 2 C-2.31 3.32 -4.62 4.64 -7 6 C-7 5.01 -7 4.02 -7 3 C-4.46815512 0.64276511 -3.52809907 0 0 0 Z " fill="#B42529" transform="translate(69,37)"/>
<path d="M0 0 C0.66 0.33 1.32 0.66 2 1 C2.75 4.375 2.75 4.375 3 8 C2.01 9.485 2.01 9.485 1 11 C-1.42857143 3.57142857 -1.42857143 3.57142857 0 0 Z " fill="#B8252D" transform="translate(53,28)"/>
<path d="M0 0 C1.98 0 3.96 0 6 0 C6 0.66 6 1.32 6 2 C2.77208445 4.1519437 1.71599191 4.20086443 -2 4 C-1.01 3.34 -0.02 2.68 1 2 C0.67 1.34 0.34 0.68 0 0 Z " fill="#B7232A" transform="translate(71,48)"/>
<path d="M0 0 C-0.33 0.66 -0.66 1.32 -1 2 C-1.66 2 -2.32 2 -3 2 C-4.62514468 3.45833358 -4.62514468 3.45833358 -6 5 C-6.33 3.35 -6.66 1.7 -7 0 C-3.86650268 -1.04449911 -3.01031744 -0.93423645 0 0 Z " fill="#82181E" transform="translate(62,26)"/>
<path d="M0 0 C-1.32 1.32 -2.64 2.64 -4 4 C-4.99 2.68 -5.98 1.36 -7 0 C-4.3333581 -1.33332095 -2.83319697 -0.67102033 0 0 Z " fill="#81181F" transform="translate(50,18)"/>
<path d="M0 0 C0 1.98 0 3.96 0 6 C-0.99 6.495 -0.99 6.495 -2 7 C-2.66 5.35 -3.32 3.7 -4 2 C-1 0 -1 0 0 0 Z " fill="#A81D24" transform="translate(59,71)"/>
<path d="M0 0 C0.33 0.99 0.66 1.98 1 3 C-0.65 4.65 -2.3 6.3 -4 8 C-4.66 7.67 -5.32 7.34 -6 7 C-4.6875 4.5 -4.6875 4.5 -3 2 C-2.01 2 -1.02 2 0 2 C0 1.34 0 0.68 0 0 Z " fill="#5B151A" transform="translate(22,36)"/>
<path d="M0 0 C1.98 0 3.96 0 6 0 C5.67 1.32 5.34 2.64 5 4 C2.525 3.01 2.525 3.01 0 2 C0 1.34 0 0.68 0 0 Z " fill="#652121" transform="translate(76,24)"/>
</svg>
